# xmcd
#
# Track frame offsets:
#	150
#	22290
#	35875
#	51720
#	66700
#	80670
#	99560
#	114612
#	132532
#	147807
#
# Disc length: 2198 seconds
#
# Revision: 1
# Processed by: cddbd v1.5.1PL0 Copyright (c) Steve Scherf et al.
# Submitted via: CDex 1.50Beta5
#
DISCID=a708940a
DTITLE=SHI-SHONEN - Singing Circuit
DYEAR=2001
DGENRE=Rock
TTITLE0=Lovely Singin’ Circuit
TTITLE1=デジタブル・イン・ベッド
TTITLE2=N-S マグネティック
TTITLE3=Bye-bye Yuppie
TTITLE4=HOLONIC
TTITLE5=嘆きのシステム
TTITLE6=リップ・ビーズ
TTITLE7=ラジコン童
TTITLE8=水の写像
TTITLE9=L.S.I.C.
EXTD=
EXTT0=
EXTT1=
EXTT2=
EXTT3=
EXTT4=
EXTT5=
EXTT6=
EXTT7=
EXTT8=
EXTT9=
PLAYORDER=
